<mxfile host="65bd71144e">
    <diagram name="Page-1" id="8vaLGi14hAJcV_wnxX4P">
        <mxGraphModel dx="1674" dy="1144" grid="1" gridSize="10" guides="1" tooltips="1" connect="1" arrows="1" fold="1" page="1" pageScale="1" pageWidth="1100" pageHeight="850" math="0" shadow="0">
            <root>
                <mxCell id="0"/>
                <mxCell id="1" parent="0"/>
                <mxCell id="7IgNUheAVe-pYQhXkYOQ-21" style="edgeStyle=orthogonalEdgeStyle;rounded=0;orthogonalLoop=1;jettySize=auto;html=1;exitX=1;exitY=0.25;exitDx=0;exitDy=0;entryX=0.5;entryY=1;entryDx=0;entryDy=0;fontFamily=Comic Sans MS;fontSize=12;fontStyle=1" parent="1" source="7IgNUheAVe-pYQhXkYOQ-1" target="7IgNUheAVe-pYQhXkYOQ-4" edge="1">
                    <mxGeometry relative="1" as="geometry">
                        <Array as="points">
                            <mxPoint x="830" y="583"/>
                            <mxPoint x="830" y="460"/>
                            <mxPoint x="865" y="460"/>
                            <mxPoint x="865" y="300"/>
                            <mxPoint x="1005" y="300"/>
                        </Array>
                    </mxGeometry>
                </mxCell>
                <mxCell id="7IgNUheAVe-pYQhXkYOQ-30" style="edgeStyle=orthogonalEdgeStyle;rounded=0;orthogonalLoop=1;jettySize=auto;html=1;exitX=1;exitY=0.5;exitDx=0;exitDy=0;entryX=0;entryY=0.7;entryDx=0;entryDy=0;fontFamily=Comic Sans MS;fontSize=12;fontStyle=1" parent="1" source="7IgNUheAVe-pYQhXkYOQ-1" target="7IgNUheAVe-pYQhXkYOQ-7" edge="1">
                    <mxGeometry relative="1" as="geometry"/>
                </mxCell>
                <mxCell id="7IgNUheAVe-pYQhXkYOQ-1" value="UploaderService" style="whiteSpace=wrap;html=1;aspect=fixed;fontFamily=Comic Sans MS;fontSize=12;fontStyle=1" parent="1" vertex="1">
                    <mxGeometry x="640" y="553" width="120" height="120" as="geometry"/>
                </mxCell>
                <mxCell id="7IgNUheAVe-pYQhXkYOQ-12" value="Persistence" style="rounded=0;whiteSpace=wrap;html=1;fillColor=none;dashed=1;dashPattern=8 8;labelPosition=center;verticalLabelPosition=top;align=center;verticalAlign=bottom;fontFamily=Comic Sans MS;fontSize=12;fontStyle=1" parent="1" vertex="1">
                    <mxGeometry x="945" y="90" width="120" height="650" as="geometry"/>
                </mxCell>
                <mxCell id="7IgNUheAVe-pYQhXkYOQ-20" style="edgeStyle=orthogonalEdgeStyle;rounded=0;orthogonalLoop=1;jettySize=auto;html=1;entryX=1;entryY=0.5;entryDx=0;entryDy=0;fontFamily=Comic Sans MS;fontSize=12;fontStyle=1" parent="1" source="7IgNUheAVe-pYQhXkYOQ-4" target="7IgNUheAVe-pYQhXkYOQ-11" edge="1">
                    <mxGeometry relative="1" as="geometry"/>
                </mxCell>
                <mxCell id="7IgNUheAVe-pYQhXkYOQ-4" value="S3" style="shape=datastore;whiteSpace=wrap;html=1;fontFamily=Comic Sans MS;fontSize=12;fontStyle=1" parent="1" vertex="1">
                    <mxGeometry x="975" y="140" width="60" height="60" as="geometry"/>
                </mxCell>
                <mxCell id="7IgNUheAVe-pYQhXkYOQ-22" style="edgeStyle=orthogonalEdgeStyle;rounded=0;orthogonalLoop=1;jettySize=auto;html=1;exitX=0.5;exitY=0;exitDx=0;exitDy=0;entryX=0.675;entryY=1.008;entryDx=0;entryDy=0;entryPerimeter=0;jumpStyle=arc;jumpSize=15;fontFamily=Comic Sans MS;fontSize=12;fontStyle=1" parent="1" source="7IgNUheAVe-pYQhXkYOQ-7" target="7IgNUheAVe-pYQhXkYOQ-11" edge="1">
                    <mxGeometry relative="1" as="geometry"/>
                </mxCell>
                <mxCell id="7IgNUheAVe-pYQhXkYOQ-7" value="SQL" style="shape=datastore;whiteSpace=wrap;html=1;fontFamily=Comic Sans MS;fontSize=12;fontStyle=1" parent="1" vertex="1">
                    <mxGeometry x="975" y="450" width="60" height="60" as="geometry"/>
                </mxCell>
                <mxCell id="7IgNUheAVe-pYQhXkYOQ-49" style="edgeStyle=orthogonalEdgeStyle;rounded=0;orthogonalLoop=1;jettySize=auto;html=1;exitX=0;exitY=0.75;exitDx=0;exitDy=0;entryX=1.019;entryY=0.222;entryDx=0;entryDy=0;entryPerimeter=0;fontFamily=Comic Sans MS;fontSize=12;fontStyle=1" parent="1" source="7IgNUheAVe-pYQhXkYOQ-11" target="7IgNUheAVe-pYQhXkYOQ-26" edge="1">
                    <mxGeometry relative="1" as="geometry"/>
                </mxCell>
                <mxCell id="7IgNUheAVe-pYQhXkYOQ-50" value="blob&amp;nbsp;" style="edgeLabel;html=1;align=center;verticalAlign=middle;resizable=0;points=[];fontFamily=Comic Sans MS;fontSize=12;fontStyle=1" parent="7IgNUheAVe-pYQhXkYOQ-49" vertex="1" connectable="0">
                    <mxGeometry x="0.0305" y="-1" relative="1" as="geometry">
                        <mxPoint as="offset"/>
                    </mxGeometry>
                </mxCell>
                <mxCell id="7IgNUheAVe-pYQhXkYOQ-11" value="DownloaderService" style="whiteSpace=wrap;html=1;aspect=fixed;fontFamily=Comic Sans MS;fontSize=12;fontStyle=1" parent="1" vertex="1">
                    <mxGeometry x="640" y="110" width="120" height="120" as="geometry"/>
                </mxCell>
                <mxCell id="7IgNUheAVe-pYQhXkYOQ-23" value="metadata store" style="text;html=1;align=center;verticalAlign=middle;resizable=0;points=[];autosize=1;strokeColor=none;fillColor=none;fontFamily=Comic Sans MS;fontSize=12;fontStyle=1" parent="1" vertex="1">
                    <mxGeometry x="950" y="510" width="110" height="30" as="geometry"/>
                </mxCell>
                <mxCell id="7IgNUheAVe-pYQhXkYOQ-24" value="blob (media) store" style="text;html=1;align=center;verticalAlign=middle;resizable=0;points=[];autosize=1;strokeColor=none;fillColor=none;fontFamily=Comic Sans MS;fontSize=12;fontStyle=1" parent="1" vertex="1">
                    <mxGeometry x="940" y="110" width="130" height="30" as="geometry"/>
                </mxCell>
                <mxCell id="7IgNUheAVe-pYQhXkYOQ-34" value="GET" style="edgeStyle=orthogonalEdgeStyle;rounded=0;orthogonalLoop=1;jettySize=auto;html=1;exitX=1;exitY=0.5;exitDx=0;exitDy=0;entryX=0.025;entryY=0.439;entryDx=0;entryDy=0;entryPerimeter=0;fontFamily=Comic Sans MS;fontSize=12;fontStyle=1" parent="1" source="7IgNUheAVe-pYQhXkYOQ-25" target="7IgNUheAVe-pYQhXkYOQ-26" edge="1">
                    <mxGeometry relative="1" as="geometry"/>
                </mxCell>
                <mxCell id="7IgNUheAVe-pYQhXkYOQ-27" value="GET" style="edgeStyle=orthogonalEdgeStyle;rounded=0;orthogonalLoop=1;jettySize=auto;html=1;entryX=0;entryY=0.5;entryDx=0;entryDy=0;fontFamily=Comic Sans MS;fontSize=12;fontStyle=1" parent="1" source="7IgNUheAVe-pYQhXkYOQ-26" target="7IgNUheAVe-pYQhXkYOQ-11" edge="1">
                    <mxGeometry relative="1" as="geometry">
                        <Array as="points">
                            <mxPoint x="530" y="170"/>
                            <mxPoint x="530" y="170"/>
                        </Array>
                    </mxGeometry>
                </mxCell>
                <mxCell id="7IgNUheAVe-pYQhXkYOQ-44" value="POST/DELETE (admin)" style="edgeStyle=orthogonalEdgeStyle;rounded=0;orthogonalLoop=1;jettySize=auto;html=1;exitX=1;exitY=0.75;exitDx=0;exitDy=0;entryX=0;entryY=0.5;entryDx=0;entryDy=0;fontFamily=Comic Sans MS;fontSize=12;fontStyle=1" parent="1" source="7IgNUheAVe-pYQhXkYOQ-26" target="7IgNUheAVe-pYQhXkYOQ-1" edge="1">
                    <mxGeometry relative="1" as="geometry"/>
                </mxCell>
                <mxCell id="7IgNUheAVe-pYQhXkYOQ-52" value="GET" style="edgeStyle=orthogonalEdgeStyle;rounded=0;orthogonalLoop=1;jettySize=auto;html=1;entryX=0;entryY=0.5;entryDx=0;entryDy=0;fontFamily=Comic Sans MS;fontSize=12;fontStyle=1" parent="1" source="7IgNUheAVe-pYQhXkYOQ-26" target="7IgNUheAVe-pYQhXkYOQ-51" edge="1">
                    <mxGeometry relative="1" as="geometry"/>
                </mxCell>
                <mxCell id="7IgNUheAVe-pYQhXkYOQ-26" value="API&lt;br style=&quot;font-size: 12px;&quot;&gt;GET /api/v1/audio&lt;br style=&quot;font-size: 12px;&quot;&gt;GET /api/v1/audio/{id, name}&lt;br style=&quot;font-size: 12px;&quot;&gt;POST /api/v1/audio&lt;br&gt;DELETE /api/v1/audio/{id}" style="whiteSpace=wrap;html=1;fontFamily=Comic Sans MS;fontSize=12;fontStyle=1" parent="1" vertex="1">
                    <mxGeometry x="340" y="100" width="160" height="450" as="geometry"/>
                </mxCell>
                <mxCell id="7IgNUheAVe-pYQhXkYOQ-41" value="" style="group;fontFamily=Comic Sans MS;fontSize=12;fontStyle=1" parent="1" vertex="1" connectable="0">
                    <mxGeometry x="30" y="320" width="180" height="170" as="geometry"/>
                </mxCell>
                <mxCell id="7IgNUheAVe-pYQhXkYOQ-39" value="Dashboard for audio uploads" style="whiteSpace=wrap;html=1;fontFamily=Comic Sans MS;fontSize=12;fontStyle=1" parent="7IgNUheAVe-pYQhXkYOQ-41" vertex="1">
                    <mxGeometry y="30" width="180" height="140" as="geometry"/>
                </mxCell>
                <mxCell id="7IgNUheAVe-pYQhXkYOQ-40" value="admin" style="text;html=1;align=center;verticalAlign=middle;resizable=0;points=[];autosize=1;strokeColor=none;fillColor=none;fontFamily=Comic Sans MS;fontSize=12;fontStyle=1" parent="7IgNUheAVe-pYQhXkYOQ-41" vertex="1">
                    <mxGeometry x="60" width="60" height="30" as="geometry"/>
                </mxCell>
                <mxCell id="7IgNUheAVe-pYQhXkYOQ-42" value="" style="group;fontFamily=Comic Sans MS;fontSize=12;fontStyle=1" parent="1" vertex="1" connectable="0">
                    <mxGeometry x="30" y="120" width="180" height="150" as="geometry"/>
                </mxCell>
                <mxCell id="7IgNUheAVe-pYQhXkYOQ-25" value="Dashboard of audio files" style="whiteSpace=wrap;html=1;fontFamily=Comic Sans MS;fontSize=12;fontStyle=1" parent="7IgNUheAVe-pYQhXkYOQ-42" vertex="1">
                    <mxGeometry y="30" width="180" height="120" as="geometry"/>
                </mxCell>
                <mxCell id="7IgNUheAVe-pYQhXkYOQ-36" value="client" style="text;html=1;align=center;verticalAlign=middle;resizable=0;points=[];autosize=1;strokeColor=none;fillColor=none;fontFamily=Comic Sans MS;fontSize=12;fontStyle=1" parent="7IgNUheAVe-pYQhXkYOQ-42" vertex="1">
                    <mxGeometry x="70" width="50" height="30" as="geometry"/>
                </mxCell>
                <mxCell id="7IgNUheAVe-pYQhXkYOQ-43" value="POST" style="edgeStyle=orthogonalEdgeStyle;rounded=0;orthogonalLoop=1;jettySize=auto;html=1;entryX=0;entryY=0.5;entryDx=0;entryDy=0;fontFamily=Comic Sans MS;fontSize=12;fontStyle=1" parent="1" source="7IgNUheAVe-pYQhXkYOQ-39" target="7IgNUheAVe-pYQhXkYOQ-26" edge="1">
                    <mxGeometry relative="1" as="geometry"/>
                </mxCell>
                <mxCell id="7IgNUheAVe-pYQhXkYOQ-46" value="&lt;div style=&quot;text-align: center; font-size: 13px;&quot;&gt;&lt;span style=&quot;background-color: initial; font-size: 13px;&quot;&gt;API&lt;/span&gt;&lt;/div&gt;&lt;div style=&quot;font-size: 13px;&quot;&gt;Download: download(id/name)&lt;/div&gt;&lt;div style=&quot;font-size: 13px;&quot;&gt;Search: search(id/name)&lt;/div&gt;&lt;div style=&quot;font-size: 13px;&quot;&gt;Upload: upload(file, filename)&lt;/div&gt;" style="text;html=1;align=left;verticalAlign=middle;resizable=0;points=[];autosize=1;strokeColor=none;fillColor=none;fontFamily=Comic Sans MS;fontSize=13;fontStyle=1" parent="1" vertex="1">
                    <mxGeometry x="30" y="553" width="210" height="80" as="geometry"/>
                </mxCell>
                <mxCell id="3K80fAYk5EkW9mQfeSB6-1" style="edgeStyle=orthogonalEdgeStyle;rounded=0;orthogonalLoop=1;jettySize=auto;html=1;entryX=0;entryY=0.5;entryDx=0;entryDy=0;jumpStyle=arc;jumpSize=15;" parent="1" source="7IgNUheAVe-pYQhXkYOQ-51" target="7IgNUheAVe-pYQhXkYOQ-7" edge="1">
                    <mxGeometry relative="1" as="geometry">
                        <Array as="points">
                            <mxPoint x="900" y="420"/>
                            <mxPoint x="900" y="480"/>
                        </Array>
                    </mxGeometry>
                </mxCell>
                <mxCell id="7IgNUheAVe-pYQhXkYOQ-51" value="SearchService" style="whiteSpace=wrap;html=1;aspect=fixed;fontFamily=Comic Sans MS;fontSize=12;fontStyle=1" parent="1" vertex="1">
                    <mxGeometry x="640" y="360" width="120" height="120" as="geometry"/>
                </mxCell>
                <mxCell id="7IgNUheAVe-pYQhXkYOQ-54" value="&lt;div style=&quot;text-align: center; font-size: 13px;&quot;&gt;&lt;span style=&quot;font-family: &amp;quot;Comic Sans MS&amp;quot;; background-color: initial; font-size: 13px;&quot;&gt;Scale&lt;/span&gt;&lt;/div&gt;&lt;font face=&quot;Comic Sans MS&quot; style=&quot;font-size: 13px;&quot;&gt;-&amp;gt;Daily active searches: 10&lt;br style=&quot;font-size: 13px;&quot;&gt;-&amp;gt;Daily downloads/plays: 100&lt;br style=&quot;font-size: 13px;&quot;&gt;-&amp;gt;Daily Uploads: 2&lt;/font&gt;" style="text;html=1;align=left;verticalAlign=middle;resizable=0;points=[];autosize=1;strokeColor=none;fillColor=none;fontStyle=1;fontSize=13;" parent="1" vertex="1">
                    <mxGeometry x="30" y="650" width="210" height="80" as="geometry"/>
                </mxCell>
                <mxCell id="3K80fAYk5EkW9mQfeSB6-6" value="Metadata information&lt;br style=&quot;font-size: 13px;&quot;&gt;&lt;div style=&quot;text-align: left; font-size: 13px;&quot;&gt;&lt;span style=&quot;background-color: initial; font-size: 13px;&quot;&gt;file id, &lt;/span&gt;&lt;font style=&quot;background-color: initial; font-size: 13px;&quot; color=&quot;#e20ae6&quot;&gt;(PK)&lt;/font&gt;&lt;/div&gt;&lt;div style=&quot;text-align: left; font-size: 13px;&quot;&gt;&lt;span style=&quot;background-color: initial; font-size: 13px;&quot;&gt;file name,&lt;/span&gt;&lt;/div&gt;&lt;div style=&quot;text-align: left; font-size: 13px;&quot;&gt;&lt;span style=&quot;background-color: initial; font-size: 13px;&quot;&gt;file size,&lt;/span&gt;&lt;/div&gt;&lt;div style=&quot;text-align: left; font-size: 13px;&quot;&gt;&lt;span style=&quot;background-color: initial; font-size: 13px;&quot;&gt;file type, &lt;font color=&quot;#e20ae6&quot;&gt;(Index)&lt;/font&gt;&lt;/span&gt;&lt;/div&gt;&lt;div style=&quot;text-align: left; font-size: 13px;&quot;&gt;&lt;span style=&quot;background-color: initial; font-size: 13px;&quot;&gt;s3 link,&lt;/span&gt;&lt;/div&gt;&lt;div style=&quot;text-align: left; font-size: 13px;&quot;&gt;&lt;span style=&quot;background-color: initial; font-size: 13px;&quot;&gt;category, &lt;/span&gt;&lt;font style=&quot;background-color: initial; font-size: 13px;&quot; color=&quot;#e20ae6&quot;&gt;(Index)&lt;/font&gt;&lt;/div&gt;&lt;div style=&quot;text-align: left; font-size: 13px;&quot;&gt;&lt;span style=&quot;background-color: initial; font-size: 13px;&quot;&gt;upload date, &lt;/span&gt;&lt;font style=&quot;background-color: initial; font-size: 13px;&quot; color=&quot;#e20ae6&quot;&gt;(Partition Key)&lt;/font&gt;&lt;/div&gt;" style="text;html=1;align=center;verticalAlign=middle;resizable=0;points=[];autosize=1;strokeColor=none;fillColor=none;fontFamily=Comic Sans MS;fontStyle=1;fontSize=13;" parent="1" vertex="1">
                    <mxGeometry x="300" y="573" width="200" height="140" as="geometry"/>
                </mxCell>
                <mxCell id="3" style="edgeStyle=none;html=1;entryX=1;entryY=0.75;entryDx=0;entryDy=0;" parent="1" source="2" target="7IgNUheAVe-pYQhXkYOQ-1" edge="1">
                    <mxGeometry relative="1" as="geometry"/>
                </mxCell>
                <mxCell id="2" value="local store" style="aspect=fixed;html=1;points=[];align=center;image;fontSize=12;image=img/lib/azure2/general/Folder_Blank.svg;fontFamily=Comic Sans MS;fontStyle=1" parent="1" vertex="1">
                    <mxGeometry x="975" y="615" width="69" height="56.00000000000001" as="geometry"/>
                </mxCell>
                <mxCell id="5" value="" style="shadow=0;dashed=0;html=1;strokeColor=none;fillColor=#4495D1;labelPosition=center;verticalLabelPosition=bottom;verticalAlign=top;align=center;outlineConnect=0;shape=mxgraph.veeam.audio_file;" parent="1" vertex="1">
                    <mxGeometry x="994.5" y="630" width="30" height="30" as="geometry"/>
                </mxCell>
                <mxCell id="10" value="" style="group" vertex="1" connectable="0" parent="1">
                    <mxGeometry x="310" y="720" width="565" height="120" as="geometry"/>
                </mxCell>
                <mxCell id="7IgNUheAVe-pYQhXkYOQ-53" value="&lt;div style=&quot;font-size: 13px;&quot;&gt;&lt;span style=&quot;background-color: initial; font-size: 13px;&quot;&gt;Audio File Information&lt;/span&gt;&lt;/div&gt;-&amp;gt;file size: &amp;lt;200KB&lt;br style=&quot;font-size: 13px;&quot;&gt;-&amp;gt;(200KB * 20 files * 365) = 1.5MB/yr&lt;br style=&quot;font-size: 13px;&quot;&gt;-&amp;gt;7.5MB/5yr" style="text;html=1;align=left;verticalAlign=middle;resizable=0;points=[];autosize=1;strokeColor=none;fillColor=none;fontFamily=Comic Sans MS;fontSize=13;fontStyle=1" parent="10" vertex="1">
                    <mxGeometry y="40" width="280" height="80" as="geometry"/>
                </mxCell>
                <mxCell id="7" value="&lt;b style=&quot;color: rgb(240, 240, 240); font-size: 13px;&quot;&gt;&lt;font face=&quot;Comic Sans MS&quot;&gt;Storage Estimations&lt;/font&gt;&lt;/b&gt;" style="text;html=1;align=center;verticalAlign=middle;resizable=0;points=[];autosize=1;strokeColor=none;fillColor=none;fontColor=#E20AE6;" vertex="1" parent="10">
                    <mxGeometry x="190" width="150" height="30" as="geometry"/>
                </mxCell>
                <mxCell id="8" value="&lt;div style=&quot;text-align: left;&quot;&gt;&lt;b style=&quot;background-color: initial;&quot;&gt;&lt;font face=&quot;Comic Sans MS&quot;&gt;Metadata Information&lt;/font&gt;&lt;/b&gt;&lt;br&gt;&lt;/div&gt;&lt;b style=&quot;font-size: 13px;&quot;&gt;&lt;font face=&quot;Comic Sans MS&quot; style=&quot;font-size: 13px;&quot;&gt;&lt;div style=&quot;text-align: left; font-size: 13px;&quot;&gt;&lt;b style=&quot;background-color: initial; font-family: Helvetica; font-size: 13px;&quot;&gt;&lt;font face=&quot;Comic Sans MS&quot; style=&quot;font-size: 13px;&quot;&gt;-&amp;gt; record size: 100B&lt;/font&gt;&lt;/b&gt;&lt;/div&gt;&lt;div style=&quot;text-align: left; font-size: 13px;&quot;&gt;&lt;b style=&quot;background-color: initial; font-family: Helvetica; font-size: 13px;&quot;&gt;&lt;font face=&quot;Comic Sans MS&quot; style=&quot;font-size: 13px;&quot;&gt;-&amp;gt; (100B * 20 files * 365) = 730KB/yr&lt;/font&gt;&lt;/b&gt;&lt;/div&gt;&lt;div style=&quot;text-align: left; font-size: 13px;&quot;&gt;&lt;b style=&quot;background-color: initial; font-family: Helvetica; font-size: 13px;&quot;&gt;&lt;font face=&quot;Comic Sans MS&quot; style=&quot;font-size: 13px;&quot;&gt;-&amp;gt; 3.65MB/5yr&lt;/font&gt;&lt;/b&gt;&lt;/div&gt;&lt;/font&gt;&lt;/b&gt;" style="text;html=1;align=center;verticalAlign=middle;resizable=0;points=[];autosize=1;strokeColor=none;fillColor=none;fontSize=13;" vertex="1" parent="10">
                    <mxGeometry x="295" y="30" width="270" height="80" as="geometry"/>
                </mxCell>
            </root>
        </mxGraphModel>
    </diagram>
</mxfile>